<?xml version="1.0" standalone="no"?>
<!DOCTYPE svg PUBLIC "-//W3C//DTD SVG 20010904//EN"
 "http://www.w3.org/TR/2001/REC-SVG-20010904/DTD/svg10.dtd">
<svg version="1.0" xmlns="http://www.w3.org/2000/svg"
 width="64.000000pt" height="64.000000pt" viewBox="0 0 64.000000 64.000000"
 preserveAspectRatio="xMidYMid meet">

<g transform="translate(0.000000,64.000000) scale(0.100000,-0.100000)"
fill="#fff" stroke="none">
<path d="M22 600 l-22 -9 0 -271 0 -270 26 -10 c33 -13 555 -13 588 0 l26 10
0 270 0 270 -26 10 c-32 13 -561 12 -592 0z m598 -225 l0 -215 -300 0 -300 0
0 215 0 215 300 0 300 0 0 -215z m0 -280 l0 -45 -300 0 -300 0 0 45 0 45 300
0 300 0 0 -45z"/>
<path d="M102 508 c-8 -8 -12 -55 -12 -145 0 -121 2 -133 19 -143 26 -13 396
-13 422 0 17 10 19 22 19 143 0 90 -4 137 -12 145 -17 17 -419 17 -436 0z
m426 -10 c13 -13 18 -222 6 -252 -5 -14 -34 -16 -214 -16 -180 0 -209 2 -214
16 -12 30 -7 239 6 252 17 17 399 17 416 0z"/>
<path d="M245 388 c-7 -29 -9 -30 -12 -10 -5 27 -19 28 -35 2 -7 -11 -21 -20
-30 -20 -10 0 -18 -4 -18 -10 0 -15 31 -12 51 6 16 14 18 13 24 -15 8 -38 20
-33 30 11 4 21 9 27 12 18 26 -70 22 -68 47 -26 24 41 29 40 40 -9 l8 -30 16
23 c14 18 20 20 30 10 11 -11 16 -9 27 6 13 17 15 17 21 3 3 -10 12 -17 20
-17 18 0 18 8 0 26 -8 7 -17 19 -20 26 -4 8 -8 9 -11 3 -20 -38 -24 -40 -39
-20 -13 19 -15 19 -21 3 -11 -28 -22 -21 -29 17 -8 41 -19 38 -44 -12 l-18
-35 -13 41 c-14 49 -26 52 -36 9z"/>
<path d="M97 107 c-8 -21 8 -39 29 -35 27 5 25 42 -2 46 -12 2 -24 -3 -27 -11z
m35 -12 c0 -5 -5 -11 -11 -13 -6 -2 -11 4 -11 13 0 9 5 15 11 13 6 -2 11 -8
11 -13z"/>
<path d="M222 98 c3 -25 36 -37 48 -17 13 20 0 39 -27 39 -20 0 -24 -4 -21
-22z m38 -3 c0 -8 -4 -15 -9 -15 -13 0 -22 16 -14 24 11 11 23 6 23 -9z"/>
<path d="M358 93 c12 -2 30 -2 40 0 9 3 -1 5 -23 4 -22 0 -30 -2 -17 -4z"/>
<path d="M488 93 c12 -2 30 -2 40 0 9 3 -1 5 -23 4 -22 0 -30 -2 -17 -4z"/>
</g>
</svg>
