<?xml version="1.0" standalone="no"?>
<!DOCTYPE svg PUBLIC "-//W3C//DTD SVG 20010904//EN"
 "http://www.w3.org/TR/2001/REC-SVG-20010904/DTD/svg10.dtd">
<svg version="1.0" xmlns="http://www.w3.org/2000/svg"
 width="64.000000pt" height="64.000000pt" viewBox="0 0 64.000000 64.000000"
 preserveAspectRatio="xMidYMid meet">

<g transform="translate(0.000000,64.000000) scale(0.100000,-0.100000)"
fill="#fff" stroke="none">
<path d="M353 615 c-17 -19 -28 -24 -50 -19 -39 8 -68 -24 -65 -71 2 -25 -3
-37 -18 -45 -30 -16 -27 -76 5 -106 21 -19 24 -28 16 -42 -14 -26 37 -77 68
-67 15 4 27 -1 45 -19 30 -34 71 -34 102 -1 18 19 30 24 48 19 37 -9 78 34 70
74 -5 24 -2 32 15 41 29 16 29 79 0 104 -14 13 -19 25 -15 41 4 16 -2 33 -16
51 -17 22 -26 26 -50 21 -23 -4 -34 0 -52 19 -31 33 -74 33 -103 0z m77 -15
c0 -13 48 -33 75 -32 25 1 45 -16 38 -34 -7 -20 17 -74 33 -74 22 0 16 -40 -8
-59 -14 -12 -22 -30 -22 -54 -2 -45 -8 -51 -52 -53 -29 -1 -34 3 -34 21 0 12
11 32 25 45 48 45 41 132 -12 167 -31 21 -41 10 -45 -52 -3 -42 -6 -50 -23
-50 -17 0 -20 8 -23 50 -2 28 -7 54 -11 58 -13 13 -49 -15 -67 -51 -21 -45
-12 -91 26 -127 43 -42 40 -62 -10 -62 -46 0 -54 8 -56 56 0 22 -9 41 -22 52
-28 22 -28 43 -1 61 15 9 23 26 24 51 3 45 22 72 41 56 14 -11 74 13 74 31 0
6 11 10 25 10 14 0 25 -5 25 -10z m-70 -139 c0 -38 19 -71 41 -71 33 0 49 22
49 65 0 25 4 45 8 45 19 0 32 -27 32 -63 0 -30 -7 -45 -30 -67 -25 -23 -30
-36 -30 -74 0 -42 -2 -46 -25 -46 -23 0 -25 3 -25 48 0 40 -5 52 -30 74 -32
28 -40 71 -20 109 17 31 30 22 30 -20z"/>
<path d="M34 207 c-3 -8 -4 -49 -2 -93 l3 -79 39 -3 c22 -2 50 2 62 9 19 10
41 7 128 -16 91 -24 109 -26 135 -15 33 13 57 37 48 46 -3 3 -16 -1 -29 -10
-12 -9 -34 -16 -48 -16 -20 0 -118 21 -217 46 -8 2 -13 22 -13 53 l0 50 57 7
c47 6 63 3 88 -11 16 -10 52 -21 80 -24 36 -4 51 -11 53 -23 3 -14 -7 -18 -62
-20 -81 -4 -92 -22 -17 -26 75 -4 97 3 109 36 12 35 105 83 125 63 9 -10 5
-18 -21 -39 -32 -27 -40 -42 -23 -42 21 0 71 53 71 76 0 42 -33 48 -92 17 -69
-35 -151 -34 -205 3 -39 26 -73 30 -122 13 -24 -9 -35 -9 -44 0 -16 16 -96 14
-103 -2z m81 -82 l0 -70 -32 -3 -33 -3 0 76 0 76 33 -3 32 -3 0 -70z"/>
<path d="M480 80 c0 -5 5 -10 10 -10 6 0 10 5 10 10 0 6 -4 10 -10 10 -5 0
-10 -4 -10 -10z"/>
</g>
</svg>
