<?xml version="1.0" standalone="no"?>
<!DOCTYPE svg PUBLIC "-//W3C//DTD SVG 20010904//EN"
"http://www.w3.org/TR/2001/REC-SVG-20010904/DTD/svg10.dtd">


<svg version="1.0" xmlns="http://www.w3.org/2000/svg"
width="64.000000pt" height="64.000000pt" viewBox="0 0 64.000000 64.000000"
preserveAspectRatio="xMidYMid meet">

<g transform="translate(0.000000,64.000000) scale(0.100000,-0.100000)"
fill="#fff" stroke="none">
<path d="M16 621 c-17 -18 -17 -23 5 -90 21 -66 25 -71 51 -71 20 0 43 -14 78
-46 43 -40 47 -48 37 -65 -9 -14 -9 -21 1 -31 18 -18 -24 -58 -62 -58 -107 0
-164 -144 -87 -221 76 -76 221 -20 221 85 0 17 10 40 22 53 l22 23 101 -100
c69 -68 109 -100 125 -100 30 0 110 80 110 110 0 16 -32 56 -100 125 l-100
101 23 22 c13 13 36 22 54 22 71 0 133 80 119 155 -8 43 -32 46 -66 10 -25
-27 -50 -33 -50 -12 0 8 11 24 25 37 36 34 33 58 -10 66 -75 14 -155 -48 -155
-121 0 -39 -39 -82 -58 -63 -10 10 -17 10 -31 1 -17 -10 -25 -6 -65 37 -32 35
-46 58 -46 78 0 26 -5 30 -68 50 -82 26 -75 26 -96 3z m134 -81 c0 -18 15 -41
50 -75 39 -38 47 -52 38 -62 -9 -11 -21 -5 -62 36 -35 34 -60 51 -77 51 -21 0
-28 7 -41 49 -9 28 -14 52 -11 54 2 3 26 -2 54 -11 42 -14 49 -19 49 -42z
m351 36 c-16 -17 -22 -33 -19 -57 3 -30 7 -34 37 -37 24 -3 40 3 57 19 l24 22
0 -25 c0 -40 -42 -78 -87 -78 -29 0 -45 -8 -76 -37 l-38 -38 -20 24 c-26 31
-24 42 11 76 23 22 30 38 30 67 0 46 38 88 78 88 l25 0 -22 -24z m-161 -215
c6 -16 23 -34 38 -42 35 -17 222 -200 222 -216 0 -28 -28 -9 -112 74 -69 69
-90 85 -100 75 -10 -10 6 -31 75 -100 83 -84 102 -112 74 -112 -17 0 -199 187
-217 223 -7 15 -16 27 -19 27 -3 0 -21 9 -40 21 l-34 20 38 39 c42 43 54 41
75 -9z m-69 -100 l24 -20 -37 -38 c-30 -31 -38 -47 -38 -76 0 -81 -92 -116
-151 -58 -59 59 -23 151 59 151 29 0 45 7 67 30 34 35 45 37 76 11z"/>
<path d="M102 174 c-24 -17 -30 -62 -10 -82 37 -37 113 12 88 57 -9 17 -39 41
-52 41 -2 0 -14 -7 -26 -16z m43 -34 c11 -17 -5 -32 -21 -19 -7 6 -11 15 -8
20 7 12 21 11 29 -1z"/>
</g>
</svg>
