<?xml version="1.0" standalone="no"?>
<!DOCTYPE svg PUBLIC "-//W3C//DTD SVG 20010904//EN"
 "http://www.w3.org/TR/2001/REC-SVG-20010904/DTD/svg10.dtd">
<svg version="1.0" xmlns="http://www.w3.org/2000/svg"
 width="64.000000pt" height="64.000000pt" viewBox="0 0 64.000000 64.000000"
 preserveAspectRatio="xMidYMid meet">

<g transform="translate(0.000000,64.000000) scale(0.100000,-0.100000)"
fill="#fff" stroke="none">
<path d="M295 570 c-10 -11 -13 -20 -7 -20 8 0 12 -19 12 -50 0 -43 3 -50 20
-50 17 0 20 7 20 50 0 31 4 50 12 50 6 0 3 9 -7 20 -10 11 -21 20 -25 20 -4 0
-15 -9 -25 -20z"/>
<path d="M50 481 c0 -5 17 -13 38 -17 80 -14 87 -31 97 -214 8 -134 13 -155
46 -165 12 -4 30 -16 40 -26 24 -24 51 -24 74 1 26 29 101 28 132 -2 19 -18
28 -20 51 -12 30 11 42 55 21 80 -17 21 -66 18 -79 -6 -16 -29 -104 -29 -120
0 -14 27 -65 27 -82 0 -16 -25 -34 -26 -48 -1 -26 49 -20 51 139 51 142 0 149
1 174 24 26 24 41 65 52 149 l7 47 -195 0 -196 0 -16 33 c-8 18 -23 37 -33 43
-26 17 -102 28 -102 15z m240 -136 c0 -23 -4 -25 -45 -25 -41 0 -45 2 -45 25
0 23 4 25 45 25 41 0 45 -2 45 -25z m80 -1 c0 -22 -4 -25 -27 -22 -20 2 -29 9
-31 26 -3 19 1 22 27 22 27 0 31 -4 31 -26z m80 0 c0 -22 -4 -25 -27 -22 -20
2 -29 9 -31 26 -3 19 1 22 27 22 27 0 31 -4 31 -26z m116 10 c-3 -9 -6 -20 -6
-25 0 -5 -20 -9 -45 -9 -37 0 -45 3 -45 18 0 27 9 32 58 32 36 0 43 -3 38 -16z
m-266 -75 c0 -18 -5 -20 -47 -17 -36 2 -49 7 -51 21 -3 14 4 17 47 17 45 0 51
-3 51 -21z m70 1 c0 -15 -7 -20 -25 -20 -18 0 -25 5 -25 20 0 15 7 20 25 20
18 0 25 -5 25 -20z m80 0 c0 -16 -7 -20 -30 -20 -23 0 -30 4 -30 20 0 16 7 20
30 20 23 0 30 -4 30 -20z m103 0 c-4 -16 -14 -20 -44 -20 -32 0 -39 3 -39 20
0 17 7 20 44 20 39 0 44 -2 39 -20z m-255 -67 c3 -21 -1 -23 -42 -23 -43 0
-46 2 -46 26 0 23 3 25 43 22 35 -2 43 -7 45 -25z m72 2 c0 -20 -5 -25 -25
-25 -20 0 -25 5 -25 25 0 20 5 25 25 25 20 0 25 -5 25 -25z m78 -2 c3 -20 -1
-23 -27 -23 -23 0 -31 5 -31 18 0 25 10 33 35 30 12 -2 21 -12 23 -25z m92 18
c0 -12 -40 -41 -57 -41 -7 0 -13 11 -13 25 0 22 4 25 35 25 19 0 35 -4 35 -9z"/>
</g>
</svg>
